<svg width="146" height="52" viewBox="0 0 146 52" fill="none" xmlns="http://www.w3.org/2000/svg">
<g id="Group 15">
<path id="Vector 7" d="M1 40C1.16667 40.8334 2.1 42.5 4.5 42.5C7.5 42.5 8 38 10.5 39C13 40 14.5 44 17.5 44C20.5 44 21.5 41 23 42.5C24.5 44 27 48 32.5 47C38 46 46.5 36 51 37.5C55.5 39 65.3807 50.8274 72 50C84 48.5 81.5 30.5 94 29.5C98.9087 29.1073 103 37.5 108 37.5C113 37.5 122 24.5 120.5 23" stroke="#67F6F5" stroke-width="2" stroke-linecap="round"/>
<g id="Ellipse 12" filter="url(#filter0_f_1_4553)">
<circle cx="121.5" cy="24.5" r="4.5" fill="#D79DDA"/>
</g>
</g>
<defs>
<filter id="filter0_f_1_4553" x="97" y="0" width="49" height="49" filterUnits="userSpaceOnUse" color-interpolation-filters="sRGB">
<feFlood flood-opacity="0" result="BackgroundImageFix"/>
<feBlend mode="normal" in="SourceGraphic" in2="BackgroundImageFix" result="shape"/>
<feGaussianBlur stdDeviation="10" result="effect1_foregroundBlur_1_4553"/>
</filter>
</defs>
</svg>
